<mxfile host="app.diagrams.net" modified="2021-07-17T09:42:49.791Z" agent="5.0 (Windows NT 10.0; Win64; x64) AppleWebKit/537.36 (KHTML, like Gecko) Chrome/91.0.4472.164 Safari/537.36" etag="lAkvh3-vFMNz4uD2bmHr" version="14.9.0" type="github">
  <diagram name="Flowchart" id="Flowchart">
    <mxGraphModel dx="1221" dy="1857" grid="1" gridSize="10" guides="1" tooltips="1" connect="1" arrows="1" fold="1" page="1" pageScale="1" pageWidth="827" pageHeight="1169" math="0" shadow="0">
      <root>
        <mxCell id="0" />
        <mxCell id="1" parent="0" />
        <mxCell id="2" style="vsdxID=1;fillColor=none;gradientColor=none;strokeOpacity=0;spacingTop=-3;spacingBottom=-3;spacingLeft=-3;spacingRight=-3;labelBackgroundColor=none;rounded=1;strokeColor=none;html=1;whiteSpace=wrap;" parent="1" vertex="1">
          <mxGeometry x="38" y="25" width="101" height="50" as="geometry" />
        </mxCell>
        <mxCell id="3" style="vsdxID=2;fillColor=#c1e4f7;gradientColor=none;strokeOpacity=0;shape=stencil(jZPRjoIwEEW/pq/NdGYVeNy4+gN+AZEqzbJgKir69SLThrbumuWpvXOHOdwMglanujxqgXDqbfetr6bqa0FfAtG0tbamH0+C1oJW+87qg+3ObcX3Yzk6ESZFV9yjnm6E0u625q5ZA0kqW3CBO3+6y3PiwPUcuHZz9um2YefubNmquFgoCUtnV6EfBnQE4F/nBERJWRE8DmWgtMEJi4AAPn+BmDuckGVyiTFGCJqS+cl5Mtgb5smNaYOgMA4qsr9S5rL4iDFnAIyi84DhZ1Ds+G80STB/Zo8vjDGSn58CvA/o3SaNh2lheZVN0/C+h/V0wUeJfw5aPwA=);spacingTop=-3;spacingBottom=-3;spacingLeft=-3;spacingRight=-3;labelBackgroundColor=none;rounded=1;html=1;whiteSpace=wrap;" parent="2" vertex="1">
          <mxGeometry width="101" height="50" as="geometry" />
        </mxCell>
        <mxCell id="4" value="&lt;p style=&quot;align:center;margin-left:0;margin-right:0;margin-top:0px;margin-bottom:0px;text-indent:0;valign:middle;direction:ltr;&quot;&gt;&lt;font style=&quot;font-size:11px;font-family:Arial;color:#333333;direction:ltr;letter-spacing:0px;line-height:100%;opacity:1&quot;&gt;&lt;i&gt;Start&lt;/i&gt;&lt;/font&gt;&lt;/p&gt;" style="text;vsdxID=1;fillColor=none;gradientColor=none;strokeOpacity=0;spacingTop=-3;spacingBottom=-3;spacingLeft=-3;spacingRight=-3;labelBackgroundColor=none;rounded=1;strokeColor=none;html=1;whiteSpace=wrap;verticalAlign=middle;align=center;;html=1;" parent="2" vertex="1">
          <mxGeometry x="3.17" y="2.38" width="95.25" height="44.45" as="geometry" />
        </mxCell>
        <mxCell id="5" style="vsdxID=3;fillColor=none;gradientColor=none;strokeOpacity=0;spacingTop=-3;spacingBottom=-3;spacingLeft=-3;spacingRight=-3;labelBackgroundColor=none;rounded=1;strokeColor=none;html=1;whiteSpace=wrap;" parent="1" vertex="1">
          <mxGeometry x="38" y="127" width="101" height="76" as="geometry" />
        </mxCell>
        <mxCell id="6" style="vsdxID=4;fillColor=#c1e4f7;gradientColor=none;strokeOpacity=0;shape=stencil(fZNRboMwDIZPk9co2GoRjxXrLtAToJKWaAyqlG7Q0zdgUuKM8Rb7/y1/cWKB+b0qblqAune2/dK/puwqgR8CwDSVtqZzJ4FHgfmltfpq20dTUnwrnBPUlNEl1SSjG1Rhzyfz1JRTEpN0RwJVfrc/Y8d+1kkaKNrLfTolPsl7flgyJ9w9h0hhDxSChLnTAMzfI4VexVCdWqmD61abJiDLdgxNbXFlqfSXHDiqZ0uU4mjI0RYd10axwrdUzAwoEbcgl4I3NWcMbxFje84smqE3/EfJh8jcfwmDB4yZe/6iA0RXQC7j6kxW+Lb/nztMH51WwNQ17Umox4vhUrRUeHwB);spacingTop=-3;spacingBottom=-3;spacingLeft=-3;spacingRight=-3;labelBackgroundColor=none;rounded=1;html=1;whiteSpace=wrap;" parent="5" vertex="1">
          <mxGeometry width="101" height="76" as="geometry" />
        </mxCell>
        <mxCell id="7" value="&lt;p style=&quot;align:center;margin-left:0;margin-right:0;margin-top:0px;margin-bottom:0px;text-indent:0;valign:middle;direction:ltr;&quot;&gt;&lt;font style=&quot;font-size:11px;font-family:Arial;color:#333333;direction:ltr;letter-spacing:0px;line-height:100%;opacity:1&quot;&gt;&lt;i&gt;Setup dogbone&lt;/i&gt;&lt;/font&gt;&lt;/p&gt;" style="text;vsdxID=3;fillColor=none;gradientColor=none;strokeOpacity=0;spacingTop=-3;spacingBottom=-3;spacingLeft=-3;spacingRight=-3;labelBackgroundColor=none;rounded=1;strokeColor=none;html=1;whiteSpace=wrap;verticalAlign=middle;align=center;;html=1;" parent="5" vertex="1">
          <mxGeometry x="3.17" y="2.98" width="95.25" height="69.85" as="geometry" />
        </mxCell>
        <mxCell id="101" style="vsdxID=5;edgeStyle=none;startArrow=none;endArrow=block;startSize=5;endSize=5;strokeColor=#333333;spacingTop=-3;spacingBottom=-3;spacingLeft=-3;spacingRight=-3;verticalAlign=middle;html=1;labelBackgroundColor=none;rounded=1;" parent="1" edge="1">
          <mxGeometry relative="1" as="geometry">
            <mxPoint as="offset" />
            <Array as="points" />
            <mxPoint x="88" y="76" as="sourcePoint" />
            <mxPoint x="88" y="127" as="targetPoint" />
          </mxGeometry>
        </mxCell>
        <mxCell id="8" style="vsdxID=6;fillColor=none;gradientColor=none;strokeWidth=102;spacingTop=-3;spacingBottom=-3;spacingLeft=-3;spacingRight=-3;labelBackgroundColor=none;rounded=0;strokeColor=none;html=1;whiteSpace=wrap;" parent="1" vertex="1">
          <mxGeometry x="287" y="44" width="542" height="38" as="geometry" />
        </mxCell>
        <mxCell id="9" style="vsdxID=7;fillColor=none;gradientColor=none;fillOpacity=0;strokeOpacity=0;spacingTop=-3;spacingBottom=-3;spacingLeft=-3;spacingRight=-3;labelBackgroundColor=none;rounded=1;strokeColor=none;html=1;whiteSpace=wrap;" parent="8" vertex="1">
          <mxGeometry width="541" height="26" as="geometry" />
        </mxCell>
        <mxCell id="10" style="vsdxID=8;fillColor=#ffffff;gradientColor=none;fillOpacity=0;strokeOpacity=0;shape=stencil(hZNdcsIgEIBPwyuzsFHDY8fqBTxBxqBhmiYORpv29MUspNBQ+wbLt+zHzzLcXpvqopmE62D7N/1h6qFh+MqkNF2jrRnciOGO4fbUW322/a2raX6pHClhiuiacsSDllDZ48F8aYoBR7FZ0QJlvvf3R8XRr9PSp99B8aKYInuCjzdLtEhxPy152HuUoV4hPSOTlBEDoAoPYAxMBeHF1WxNFwkqxWGdSMIzQYevylQSUkNHKJUqRsfAJYTZu8mrzkl+Y+Dr8h/dOSWEBMfNQnk+lA8JAC7kQnq+Klxgf1lHD5LPyfyCn0cWGZ304YNxfC5MCczeVs71+W91g6kvqGNM21Jbxeu/+8iFqAdx9w0=);spacingTop=-3;spacingBottom=-3;spacingLeft=-3;spacingRight=-3;labelBackgroundColor=none;rounded=1;html=1;whiteSpace=wrap;" parent="9" vertex="1">
          <mxGeometry width="541" height="26" as="geometry" />
        </mxCell>
        <mxCell id="11" value="&lt;p style=&quot;margin-left: 6 ; margin-right: 6 ; margin-top: 2px ; margin-bottom: 0px ; text-indent: 0 ; direction: ltr&quot;&gt;&lt;font style=&quot;font-size: 16px ; font-family: &amp;#34;arial&amp;#34; ; color: #a9afb8 ; direction: ltr ; letter-spacing: 0px ; line-height: 100% ; opacity: 1&quot;&gt;&lt;b&gt;Tensile tester: Fibre fragmentation&lt;/b&gt;&lt;/font&gt;&lt;/p&gt;" style="text;vsdxID=7;fillColor=none;gradientColor=none;fillOpacity=0;strokeOpacity=0;spacingTop=-3;spacingBottom=-3;spacingLeft=-3;spacingRight=-3;labelBackgroundColor=none;rounded=1;strokeColor=none;html=1;whiteSpace=wrap;verticalAlign=middle;align=center;;html=1;" parent="9" vertex="1">
          <mxGeometry x="2.54" y="2.41" width="536.58" height="21.59" as="geometry" />
        </mxCell>
        <mxCell id="12" style="vsdxID=9;fillColor=none;gradientColor=none;shape=stencil(hZDNDsIgDICfpkdJV2Ii5zlfwCcgrgpRYWHMv6eX0R0WL97ar/0KLeh2dHZgIBxzild++j470Hsg8sFx8rlEoDvQ7TkmvqQ4hV7ywZZOwkq4F6eZuwltOh39h4VtFe4Ei3ePj/m9l1Q3qHCx3ssMbBRSRQcxbj6sDGOUMX+MEtTv1UQ2W9d+VylIzqC7Lw==);strokeColor=#a9afb8;spacingTop=-3;spacingBottom=-3;spacingLeft=-3;spacingRight=-3;labelBackgroundColor=none;rounded=1;html=1;whiteSpace=wrap;" parent="8" vertex="1">
          <mxGeometry x="162" y="25" width="222" height="1" as="geometry" />
        </mxCell>
        <mxCell id="13" style="vsdxID=10;fillColor=none;gradientColor=none;fillOpacity=0;strokeOpacity=0;spacingTop=-3;spacingBottom=-3;spacingLeft=-3;spacingRight=-3;labelBackgroundColor=none;rounded=1;strokeColor=none;html=1;whiteSpace=wrap;" parent="8" vertex="1">
          <mxGeometry y="26" width="542" height="11" as="geometry" />
        </mxCell>
        <mxCell id="14" style="vsdxID=11;fillColor=#ffffff;gradientColor=none;fillOpacity=0;strokeOpacity=0;shape=stencil(fZNRcoMgEIZPwyuzsNrEx0ySXqAncCKtTIxmiGlNT1/iyshaok+w+//uB8sK3N/q8mqEhlvvurP5sVVfCzwIrW1bG2d7vxJ4FLj/7Jz5ct29rWh/Lb1SwxgxFXnUU62hdKcP+2soBhLVJqcEOS/d97PiMOUp9aBdpmWWjZF3Ep/ujtSKy6etKiQU8UdmGHSonunJodkPBgyCYHlgLBjLw84TNLaNcAtf8I0hwxqul+dbjgycUAFwwJdHwqUBk3eWgJ4ttM83EteoZ/0U2Cqpcs4dn2wOhU4H2Pi6cKl6hRv1JGlJvIq5zeo/C+98oI3PhFyBqWtKga6/Xb8Yp4TmxzYNDVmcX06VD9FE4vEP);spacingTop=-3;spacingBottom=-3;spacingLeft=-3;spacingRight=-3;labelBackgroundColor=none;rounded=1;html=1;whiteSpace=wrap;" parent="13" vertex="1">
          <mxGeometry width="542" height="11" as="geometry" />
        </mxCell>
        <mxCell id="15" value="&lt;p style=&quot;align:center;margin-left:6;margin-right:6;margin-top:2px;margin-bottom:0px;text-indent:0;valign:middle;direction:ltr;&quot;&gt;&lt;font style=&quot;font-size:9px;font-family:Arial;color:#a9afb8;direction:ltr;letter-spacing:0px;line-height:100%;opacity:1&quot;&gt;Patrick Fairclough  |  July 17, 2021&lt;/font&gt;&lt;/p&gt;" style="text;vsdxID=10;fillColor=none;gradientColor=none;fillOpacity=0;strokeOpacity=0;spacingTop=-3;spacingBottom=-3;spacingLeft=-3;spacingRight=-3;labelBackgroundColor=none;rounded=1;strokeColor=none;html=1;whiteSpace=wrap;verticalAlign=middle;align=center;;html=1;" parent="13" vertex="1">
          <mxGeometry x="2.54" y="1.57" width="537.21" height="6.99" as="geometry" />
        </mxCell>
        <mxCell id="44" style="vsdxID=36;fillColor=none;gradientColor=none;strokeColor=none;spacingTop=-3;spacingBottom=-3;spacingLeft=-3;spacingRight=-3;labelBackgroundColor=none;rounded=1;html=1;whiteSpace=wrap;" parent="1" vertex="1">
          <mxGeometry x="38" y="241" width="101" height="76" as="geometry" />
        </mxCell>
        <mxCell id="45" style="vsdxID=37;fillColor=#c1e4f7;gradientColor=none;shape=stencil(hZPRcoMgEEW/hldmYYOGx06a/EC/wIm0MrWaIaY1/fqSLCrQ1PoE997Fw+oy3J2b6mSYhPPg+nfzZeuhYfjMpLRdY5wd/IrhnuHutXfmzfWXrqb9qfJJCXfF1FQjbmkJlTu+2G9DGnAUpSKDKj/6z9sbx+CTdaWdRC4pfKDw8eIoLdJ42ArNlYboQfJHGc6bjoNrUEQxSyOStOF6E0JBEYqXEQY8eZLWdhG2VhyKBB34FtfIdTmdOdP73kgdPduMXgCk8JiCL34QCl6Uq9hLRYBCjqvUS8F8jZQxvlaOPXFqlbU3BP6iVAljkv5NGH3inHlizLo4XwFTGx/25AHfP/+sX9yng+bGti0NV+zn0+QlmkTc/wA=);strokeColor=#333333;spacingTop=-3;spacingBottom=-3;spacingLeft=-3;spacingRight=-3;labelBackgroundColor=none;rounded=1;html=1;whiteSpace=wrap;" parent="44" vertex="1">
          <mxGeometry width="101" height="76" as="geometry" />
        </mxCell>
        <mxCell id="46" value="&lt;p style=&quot;align:center;margin-left:0;margin-right:0;margin-top:0px;margin-bottom:0px;text-indent:0;valign:middle;direction:ltr;&quot;&gt;&lt;font style=&quot;font-size:11px;font-family:Arial;color:#333333;direction:ltr;letter-spacing:0px;line-height:100%;opacity:1&quot;&gt;Input Sample length and current jaw separation&lt;/font&gt;&lt;/p&gt;" style="text;vsdxID=36;fillColor=none;gradientColor=none;strokeColor=none;spacingTop=-3;spacingBottom=-3;spacingLeft=-3;spacingRight=-3;labelBackgroundColor=none;rounded=1;html=1;whiteSpace=wrap;verticalAlign=middle;align=center;;html=1;" parent="44" vertex="1">
          <mxGeometry x="3.17" y="15.68" width="95.25" height="57.15" as="geometry" />
        </mxCell>
        <mxCell id="47" style="vsdxID=38;fillColor=none;gradientColor=none;strokeColor=none;spacingTop=-3;spacingBottom=-3;spacingLeft=-3;spacingRight=-3;labelBackgroundColor=none;rounded=1;html=1;whiteSpace=wrap;" parent="1" vertex="1">
          <mxGeometry x="165" y="241" width="101" height="76" as="geometry" />
        </mxCell>
        <mxCell id="48" style="vsdxID=39;fillColor=#c1e4f7;gradientColor=none;shape=stencil(hZPdcoMgEIWfhltmYUXlspMmL9AncCKtTK1miGl+nr7EhSlYk3KFe3bh24PLcHPsmoNhEo6TGz/N2bZTx/CVSWmHzjg7+R3DLcPN++jMhxtPQ0vfh8ZnSpgjpqUacc+W0Lj9m70ZigFHUSkSqPJr/L7feAk1NS81yVeKlLygg3aUvz85KhChQvMCdbLqUB50ybWEZImK9IsMuuQyAF1DCEIGhowoYyrPOPDiiXo7JB1oleHDM3Zd8WhGxIWcTvvuipzuYUMBTycW4pqHK9C18O+ScWvkSj9jr4GrMmf37UCd81dJhyEkYOFvtfA3JjyCzQ3Osv9iJq8rlvfH5+ZK6WzlwGlbEfHXLlz1awX7/1/bb+Y5ogmzfU9jmOrLufMhmlnc/gA=);strokeColor=#333333;spacingTop=-3;spacingBottom=-3;spacingLeft=-3;spacingRight=-3;labelBackgroundColor=none;rounded=1;html=1;whiteSpace=wrap;" parent="47" vertex="1">
          <mxGeometry width="101" height="76" as="geometry" />
        </mxCell>
        <mxCell id="49" value="&lt;p style=&quot;align:center;margin-left:0;margin-right:0;margin-top:0px;margin-bottom:0px;text-indent:0;valign:middle;direction:ltr;&quot;&gt;&lt;font style=&quot;font-size:11px;font-family:Arial;color:#333333;direction:ltr;letter-spacing:0px;line-height:100%;opacity:1&quot;&gt;L_sam, J_sep&lt;/font&gt;&lt;/p&gt;" style="text;vsdxID=38;fillColor=none;gradientColor=none;strokeColor=none;spacingTop=-3;spacingBottom=-3;spacingLeft=-3;spacingRight=-3;labelBackgroundColor=none;rounded=1;html=1;whiteSpace=wrap;verticalAlign=middle;align=center;;html=1;" parent="47" vertex="1">
          <mxGeometry x="3.17" y="2.98" width="95.25" height="69.85" as="geometry" />
        </mxCell>
        <mxCell id="102" style="vsdxID=40;edgeStyle=none;startArrow=none;endArrow=block;startSize=5;endSize=5;strokeColor=#333333;spacingTop=-3;spacingBottom=-3;spacingLeft=-3;spacingRight=-3;verticalAlign=middle;html=1;labelBackgroundColor=none;rounded=1;" parent="1" edge="1">
          <mxGeometry relative="1" as="geometry">
            <mxPoint as="offset" />
            <Array as="points" />
            <mxPoint x="88" y="203" as="sourcePoint" />
            <mxPoint x="88" y="247" as="targetPoint" />
          </mxGeometry>
        </mxCell>
        <mxCell id="103" style="vsdxID=41;edgeStyle=none;startArrow=none;endArrow=block;startSize=5;endSize=5;strokeColor=#333333;spacingTop=-3;spacingBottom=-3;spacingLeft=-3;spacingRight=-3;verticalAlign=middle;html=1;labelBackgroundColor=none;rounded=1;" parent="1" edge="1">
          <mxGeometry relative="1" as="geometry">
            <mxPoint as="offset" />
            <Array as="points" />
            <mxPoint x="140" y="279" as="sourcePoint" />
            <mxPoint x="174" y="279" as="targetPoint" />
          </mxGeometry>
        </mxCell>
        <mxCell id="50" style="vsdxID=42;fillColor=none;gradientColor=none;strokeColor=none;spacingTop=-3;spacingBottom=-3;spacingLeft=-3;spacingRight=-3;labelBackgroundColor=none;rounded=1;html=1;whiteSpace=wrap;" parent="1" vertex="1">
          <mxGeometry x="38" y="358" width="101" height="76" as="geometry" />
        </mxCell>
        <mxCell id="51" style="vsdxID=43;fillColor=#c1e4f7;gradientColor=none;shape=stencil(fZNRboMwDIZPk9co2GoRjxXrLtAToJKWaAyqlG7Q0zdgUuKM8Rb7/y1/cWKB+b0qblqAune2/dK/puwqgR8CwDSVtqZzJ4FHgfmltfpq20dTUnwrnBPUlNEl1SSjG1Rhzyfz1JRTEpN0RwJVfrc/Y8d+1kkaKNrLfTolPsl7flgyJ9w9h0hhDxSChLnTAMzfI4VexVCdWqmD61abJiDLdgxNbXFlqfSXHDiqZ0uU4mjI0RYd10axwrdUzAwoEbcgl4I3NWcMbxFje84smqE3/EfJh8jcfwmDB4yZe/6iA0RXQC7j6kxW+Lb/nztMH51WwNQ17Umox4vhUrRUeHwB);strokeColor=#333333;spacingTop=-3;spacingBottom=-3;spacingLeft=-3;spacingRight=-3;labelBackgroundColor=none;rounded=1;html=1;whiteSpace=wrap;" parent="50" vertex="1">
          <mxGeometry width="101" height="76" as="geometry" />
        </mxCell>
        <mxCell id="52" value="&lt;p style=&quot;align:center;margin-left:0;margin-right:0;margin-top:0px;margin-bottom:0px;text-indent:0;valign:middle;direction:ltr;&quot;&gt;&lt;font style=&quot;font-size:11px;font-family:Arial;color:#333333;direction:ltr;letter-spacing:0px;line-height:100%;opacity:1&quot;&gt;Set Jaws for Sample&lt;/font&gt;&lt;/p&gt;" style="text;vsdxID=42;fillColor=none;gradientColor=none;strokeColor=none;spacingTop=-3;spacingBottom=-3;spacingLeft=-3;spacingRight=-3;labelBackgroundColor=none;rounded=1;html=1;whiteSpace=wrap;verticalAlign=middle;align=center;;html=1;" parent="50" vertex="1">
          <mxGeometry x="7.62" y="7.42" width="86.36" height="60.96" as="geometry" />
        </mxCell>
        <mxCell id="104" style="vsdxID=44;edgeStyle=none;startArrow=none;endArrow=block;startSize=5;endSize=5;strokeColor=#333333;spacingTop=-3;spacingBottom=-3;spacingLeft=-3;spacingRight=-3;verticalAlign=middle;html=1;labelBackgroundColor=none;rounded=1;" parent="1" edge="1">
          <mxGeometry relative="1" as="geometry">
            <mxPoint as="offset" />
            <Array as="points" />
            <mxPoint x="88" y="317" as="sourcePoint" />
            <mxPoint x="88" y="358" as="targetPoint" />
          </mxGeometry>
        </mxCell>
        <mxCell id="53" style="vsdxID=45;fillColor=none;gradientColor=none;strokeColor=none;spacingTop=-3;spacingBottom=-3;spacingLeft=-3;spacingRight=-3;labelBackgroundColor=none;rounded=1;html=1;whiteSpace=wrap;" parent="1" vertex="1">
          <mxGeometry x="38" y="465" width="101" height="76" as="geometry" />
        </mxCell>
        <mxCell id="54" style="vsdxID=46;fillColor=#c1e4f7;gradientColor=none;shape=stencil(hZPRcoMgEEW/hldmYYOGx06a/EC/wIm0MrWaIaY1/fqSLCrQ1PoE997Fw+oy3J2b6mSYhPPg+nfzZeuhYfjMpLRdY5wd/IrhnuHutXfmzfWXrqb9qfJJCXfF1FQjbmkJlTu+2G9DGnAUpSKDKj/6z9sbx+CTdaWdRC4pfKDw8eIoLdJ42ArNlYboQfJHGc6bjoNrUEQxSyOStOF6E0JBEYqXEQY8eZLWdhG2VhyKBB34FtfIdTmdOdP73kgdPduMXgCk8JiCL34QCl6Uq9hLRYBCjqvUS8F8jZQxvlaOPXFqlbU3BP6iVAljkv5NGH3inHlizLo4XwFTGx/25AHfP/+sX9yng+bGti0NV+zn0+QlmkTc/wA=);strokeColor=#333333;spacingTop=-3;spacingBottom=-3;spacingLeft=-3;spacingRight=-3;labelBackgroundColor=none;rounded=1;html=1;whiteSpace=wrap;" parent="53" vertex="1">
          <mxGeometry width="101" height="76" as="geometry" />
        </mxCell>
        <mxCell id="55" value="&lt;p style=&quot;align:center;margin-left:0;margin-right:0;margin-top:0px;margin-bottom:0px;text-indent:0;valign:middle;direction:ltr;&quot;&gt;&lt;font style=&quot;font-size:11px;font-family:Arial;color:#333333;direction:ltr;letter-spacing:0px;line-height:100%;opacity:1&quot;&gt;Tighten Sample&lt;/font&gt;&lt;/p&gt;" style="text;vsdxID=45;fillColor=none;gradientColor=none;strokeColor=none;spacingTop=-3;spacingBottom=-3;spacingLeft=-3;spacingRight=-3;labelBackgroundColor=none;rounded=1;html=1;whiteSpace=wrap;verticalAlign=middle;align=center;;html=1;" parent="53" vertex="1">
          <mxGeometry x="3.17" y="15.68" width="95.25" height="57.15" as="geometry" />
        </mxCell>
        <mxCell id="105" style="vsdxID=47;edgeStyle=none;startArrow=none;endArrow=block;startSize=5;endSize=5;strokeColor=#333333;spacingTop=-3;spacingBottom=-3;spacingLeft=-3;spacingRight=-3;verticalAlign=middle;html=1;labelBackgroundColor=none;rounded=1;" parent="1" edge="1">
          <mxGeometry relative="1" as="geometry">
            <mxPoint as="offset" />
            <Array as="points" />
            <mxPoint x="88" y="435" as="sourcePoint" />
            <mxPoint x="88" y="471" as="targetPoint" />
          </mxGeometry>
        </mxCell>
        <mxCell id="56" style="vsdxID=48;fillColor=none;gradientColor=none;strokeColor=none;spacingTop=-3;spacingBottom=-3;spacingLeft=-3;spacingRight=-3;labelBackgroundColor=none;rounded=1;html=1;whiteSpace=wrap;" parent="1" vertex="1">
          <mxGeometry x="38" y="572" width="101" height="76" as="geometry" />
        </mxCell>
        <mxCell id="57" style="vsdxID=49;fillColor=#c1e4f7;gradientColor=none;shape=stencil(fZNRboMwDIZPk9co2GoRjxXrLtAToJKWaAyqlG7Q0zdgUuKM8Rb7/y1/cWKB+b0qblqAune2/dK/puwqgR8CwDSVtqZzJ4FHgfmltfpq20dTUnwrnBPUlNEl1SSjG1Rhzyfz1JRTEpN0RwJVfrc/Y8d+1kkaKNrLfTolPsl7flgyJ9w9h0hhDxSChLnTAMzfI4VexVCdWqmD61abJiDLdgxNbXFlqfSXHDiqZ0uU4mjI0RYd10axwrdUzAwoEbcgl4I3NWcMbxFje84smqE3/EfJh8jcfwmDB4yZe/6iA0RXQC7j6kxW+Lb/nztMH51WwNQ17Umox4vhUrRUeHwB);strokeColor=#333333;spacingTop=-3;spacingBottom=-3;spacingLeft=-3;spacingRight=-3;labelBackgroundColor=none;rounded=1;html=1;whiteSpace=wrap;" parent="56" vertex="1">
          <mxGeometry width="101" height="76" as="geometry" />
        </mxCell>
        <mxCell id="58" value="&lt;p style=&quot;align:center;margin-left:0;margin-right:0;margin-top:0px;margin-bottom:0px;text-indent:0;valign:middle;direction:ltr;&quot;&gt;&lt;font style=&quot;font-size:11px;font-family:Arial;color:#333333;direction:ltr;letter-spacing:0px;line-height:100%;opacity:1&quot;&gt;Pre-tension sample&lt;/font&gt;&lt;/p&gt;" style="text;vsdxID=48;fillColor=none;gradientColor=none;strokeColor=none;spacingTop=-3;spacingBottom=-3;spacingLeft=-3;spacingRight=-3;labelBackgroundColor=none;rounded=1;html=1;whiteSpace=wrap;verticalAlign=middle;align=center;;html=1;" parent="56" vertex="1">
          <mxGeometry x="7.62" y="7.42" width="86.36" height="60.96" as="geometry" />
        </mxCell>
        <mxCell id="106" style="vsdxID=50;edgeStyle=none;startArrow=none;endArrow=block;startSize=5;endSize=5;strokeColor=#333333;spacingTop=-3;spacingBottom=-3;spacingLeft=-3;spacingRight=-3;verticalAlign=middle;html=1;labelBackgroundColor=none;rounded=1;" parent="1" edge="1">
          <mxGeometry relative="1" as="geometry">
            <mxPoint y="-1" as="offset" />
            <Array as="points" />
            <mxPoint x="88" y="541" as="sourcePoint" />
            <mxPoint x="88" y="571" as="targetPoint" />
          </mxGeometry>
        </mxCell>
        <mxCell id="59" style="vsdxID=51;fillColor=none;gradientColor=none;strokeColor=none;spacingTop=-3;spacingBottom=-3;spacingLeft=-3;spacingRight=-3;labelBackgroundColor=none;rounded=1;html=1;whiteSpace=wrap;" parent="1" vertex="1">
          <mxGeometry x="190" y="572" width="101" height="76" as="geometry" />
        </mxCell>
        <mxCell id="60" style="vsdxID=52;fillColor=#c1e4f7;gradientColor=none;shape=stencil(fZNRboMwDIZPk9co2GoRjxXrLtAToJKWaAyqlG7Q0zdgUuKM8Rb7/y1/cWKB+b0qblqAune2/dK/puwqgR8CwDSVtqZzJ4FHgfmltfpq20dTUnwrnBPUlNEl1SSjG1Rhzyfz1JRTEpN0RwJVfrc/Y8d+1kkaKNrLfTolPsl7flgyJ9w9h0hhDxSChLnTAMzfI4VexVCdWqmD61abJiDLdgxNbXFlqfSXHDiqZ0uU4mjI0RYd10axwrdUzAwoEbcgl4I3NWcMbxFje84smqE3/EfJh8jcfwmDB4yZe/6iA0RXQC7j6kxW+Lb/nztMH51WwNQ17Umox4vhUrRUeHwB);strokeColor=#333333;spacingTop=-3;spacingBottom=-3;spacingLeft=-3;spacingRight=-3;labelBackgroundColor=none;rounded=1;html=1;whiteSpace=wrap;" parent="59" vertex="1">
          <mxGeometry width="101" height="76" as="geometry" />
        </mxCell>
        <mxCell id="61" value="&lt;p style=&quot;align:center;margin-left:0;margin-right:0;margin-top:0px;margin-bottom:0px;text-indent:0;valign:middle;direction:ltr;&quot;&gt;&lt;font style=&quot;font-size:11px;font-family:Arial;color:#333333;direction:ltr;letter-spacing:0px;line-height:100%;opacity:1&quot;&gt;Step Strain &lt;/font&gt;&lt;/p&gt;" style="text;vsdxID=51;fillColor=none;gradientColor=none;strokeColor=none;spacingTop=-3;spacingBottom=-3;spacingLeft=-3;spacingRight=-3;labelBackgroundColor=none;rounded=1;html=1;whiteSpace=wrap;verticalAlign=middle;align=center;;html=1;" parent="59" vertex="1">
          <mxGeometry x="7.62" y="7.42" width="86.36" height="60.96" as="geometry" />
        </mxCell>
        <mxCell id="107" style="vsdxID=53;edgeStyle=none;startArrow=none;endArrow=block;startSize=5;endSize=5;strokeColor=#333333;spacingTop=-3;spacingBottom=-3;spacingLeft=-3;spacingRight=-3;verticalAlign=middle;html=1;labelBackgroundColor=none;rounded=1;" parent="1" edge="1">
          <mxGeometry relative="1" as="geometry">
            <mxPoint as="offset" />
            <Array as="points" />
            <mxPoint x="140" y="610" as="sourcePoint" />
            <mxPoint x="190" y="610" as="targetPoint" />
          </mxGeometry>
        </mxCell>
        <mxCell id="62" style="vsdxID=54;fillColor=none;gradientColor=none;strokeColor=none;spacingTop=-3;spacingBottom=-3;spacingLeft=-3;spacingRight=-3;labelBackgroundColor=none;rounded=1;html=1;whiteSpace=wrap;" parent="1" vertex="1">
          <mxGeometry x="292" y="241" width="101" height="76" as="geometry" />
        </mxCell>
        <mxCell id="63" style="vsdxID=55;fillColor=#c1e4f7;gradientColor=none;shape=stencil(hZPdcoMgEIWfhltmYUXlspMmL9AncCKtTK1miGl+nr7EhSlYk3KFe3bh24PLcHPsmoNhEo6TGz/N2bZTx/CVSWmHzjg7+R3DLcPN++jMhxtPQ0vfh8ZnSpgjpqUacc+W0Lj9m70ZigFHUSkSqPJr/L7feAk1NS81yVeKlLygg3aUvz85KhChQvMCdbLqUB50ybWEZImK9IsMuuQyAF1DCEIGhowoYyrPOPDiiXo7JB1oleHDM3Zd8WhGxIWcTvvuipzuYUMBTycW4pqHK9C18O+ScWvkSj9jr4GrMmf37UCd81dJhyEkYOFvtfA3JjyCzQ3Osv9iJq8rlvfH5+ZK6WzlwGlbEfHXLlz1awX7/1/bb+Y5ogmzfU9jmOrLufMhmlnc/gA=);strokeColor=#333333;spacingTop=-3;spacingBottom=-3;spacingLeft=-3;spacingRight=-3;labelBackgroundColor=none;rounded=1;html=1;whiteSpace=wrap;" parent="62" vertex="1">
          <mxGeometry width="101" height="76" as="geometry" />
        </mxCell>
        <mxCell id="64" value="&lt;p style=&quot;align:center;margin-left:0;margin-right:0;margin-top:0px;margin-bottom:0px;text-indent:0;valign:middle;direction:ltr;&quot;&gt;&lt;font style=&quot;font-size:11px;font-family:Arial;color:#333333;direction:ltr;letter-spacing:0px;line-height:100%;opacity:1&quot;&gt;Calculate Strain steps&lt;/font&gt;&lt;/p&gt;" style="text;vsdxID=54;fillColor=none;gradientColor=none;strokeColor=none;spacingTop=-3;spacingBottom=-3;spacingLeft=-3;spacingRight=-3;labelBackgroundColor=none;rounded=1;html=1;whiteSpace=wrap;verticalAlign=middle;align=center;;html=1;" parent="62" vertex="1">
          <mxGeometry x="3.17" y="2.98" width="95.25" height="69.85" as="geometry" />
        </mxCell>
        <mxCell id="108" style="vsdxID=56;edgeStyle=none;startArrow=none;endArrow=block;startSize=5;endSize=5;strokeColor=#333333;spacingTop=-3;spacingBottom=-3;spacingLeft=-3;spacingRight=-3;verticalAlign=middle;html=1;labelBackgroundColor=none;rounded=1;" parent="1" edge="1">
          <mxGeometry relative="1" as="geometry">
            <mxPoint x="-6" as="offset" />
            <Array as="points" />
            <mxPoint x="256" y="279" as="sourcePoint" />
            <mxPoint x="292" y="279" as="targetPoint" />
          </mxGeometry>
        </mxCell>
        <mxCell id="65" style="vsdxID=57;fillColor=none;gradientColor=none;strokeColor=none;spacingTop=-3;spacingBottom=-3;spacingLeft=-3;spacingRight=-3;labelBackgroundColor=none;rounded=1;html=1;whiteSpace=wrap;" parent="1" vertex="1">
          <mxGeometry x="330" y="572" width="101" height="76" as="geometry" />
        </mxCell>
        <mxCell id="66" style="vsdxID=58;fillColor=#c1e4f7;gradientColor=none;shape=stencil(fZNRboMwDIZPk9co2GoRjxXrLtAToJKWaAyqlG7Q0zdgUuKM8Rb7/y1/cWKB+b0qblqAune2/dK/puwqgR8CwDSVtqZzJ4FHgfmltfpq20dTUnwrnBPUlNEl1SSjG1Rhzyfz1JRTEpN0RwJVfrc/Y8d+1kkaKNrLfTolPsl7flgyJ9w9h0hhDxSChLnTAMzfI4VexVCdWqmD61abJiDLdgxNbXFlqfSXHDiqZ0uU4mjI0RYd10axwrdUzAwoEbcgl4I3NWcMbxFje84smqE3/EfJh8jcfwmDB4yZe/6iA0RXQC7j6kxW+Lb/nztMH51WwNQ17Umox4vhUrRUeHwB);strokeColor=#333333;spacingTop=-3;spacingBottom=-3;spacingLeft=-3;spacingRight=-3;labelBackgroundColor=none;rounded=1;html=1;whiteSpace=wrap;" parent="65" vertex="1">
          <mxGeometry width="101" height="76" as="geometry" />
        </mxCell>
        <mxCell id="67" value="&lt;p style=&quot;align:center;margin-left:0;margin-right:0;margin-top:0px;margin-bottom:0px;text-indent:0;valign:middle;direction:ltr;&quot;&gt;&lt;font style=&quot;font-size:11px;font-family:Arial;color:#333333;direction:ltr;letter-spacing:0px;line-height:100%;opacity:1&quot;&gt;Measure force&lt;/font&gt;&lt;/p&gt;" style="text;vsdxID=57;fillColor=none;gradientColor=none;strokeColor=none;spacingTop=-3;spacingBottom=-3;spacingLeft=-3;spacingRight=-3;labelBackgroundColor=none;rounded=1;html=1;whiteSpace=wrap;verticalAlign=middle;align=center;;html=1;" parent="65" vertex="1">
          <mxGeometry x="7.62" y="7.42" width="86.36" height="60.96" as="geometry" />
        </mxCell>
        <mxCell id="68" style="vsdxID=59;fillColor=none;gradientColor=none;strokeColor=none;spacingTop=-3;spacingBottom=-3;spacingLeft=-3;spacingRight=-3;labelBackgroundColor=none;rounded=1;html=1;whiteSpace=wrap;" parent="1" vertex="1">
          <mxGeometry x="469" y="572" width="101" height="76" as="geometry" />
        </mxCell>
        <mxCell id="69" style="vsdxID=60;fillColor=#c1e4f7;gradientColor=none;shape=stencil(fZPRdoMgDIafhlsPJNLVy52ue4E9gaeyyZnTHmq3dk8/algFUvUKkj/kS2IE7k5tfTQC5Gl0w6f5sc3YCnwRALZvjbOjPwncC9y9D858uOHcN3Q/1l4JcrKYhmLUTQ2ydoc3+2vIJgtUT5ocFPk1fN8yXshfbsh3Ddfp9krKw9mRVAXntlBVkAeTKv4fvwBZtCq2AeQKTIRBVAYFsrTy2WfubB8xVhnjZg2y4pCeG7ScP5USxxFzETnyHSItYYn5XmESvcAc92wuA7LOlpwzVmE2UOSZH3CmmHp1/pxS8/nz8S+1H1MC5NN9xLvyv/rDtBa0MLbraKtif75G3kQriPs/);strokeColor=#333333;spacingTop=-3;spacingBottom=-3;spacingLeft=-3;spacingRight=-3;labelBackgroundColor=none;rounded=1;html=1;whiteSpace=wrap;" parent="68" vertex="1">
          <mxGeometry width="101" height="76" as="geometry" />
        </mxCell>
        <mxCell id="70" value="&lt;p style=&quot;align:center;margin-left:0;margin-right:0;margin-top:0px;margin-bottom:0px;text-indent:0;valign:middle;direction:ltr;&quot;&gt;&lt;font style=&quot;font-size:11px;font-family:Arial;color:#333333;direction:ltr;letter-spacing:0px;line-height:100%;opacity:1&quot;&gt;Force=f_min&lt;/font&gt;&lt;/p&gt;" style="text;vsdxID=59;fillColor=none;gradientColor=none;strokeColor=none;spacingTop=-3;spacingBottom=-3;spacingLeft=-3;spacingRight=-3;labelBackgroundColor=none;rounded=1;html=1;whiteSpace=wrap;verticalAlign=middle;align=center;;html=1;" parent="68" vertex="1">
          <mxGeometry x="3.17" y="2.98" width="95.25" height="69.85" as="geometry" />
        </mxCell>
        <mxCell id="109" style="vsdxID=61;edgeStyle=none;startArrow=none;endArrow=block;startSize=5;endSize=5;strokeColor=#333333;spacingTop=-3;spacingBottom=-3;spacingLeft=-3;spacingRight=-3;verticalAlign=middle;html=1;labelBackgroundColor=none;rounded=1;" parent="1" edge="1">
          <mxGeometry relative="1" as="geometry">
            <mxPoint x="-1" as="offset" />
            <Array as="points" />
            <mxPoint x="292" y="610" as="sourcePoint" />
            <mxPoint x="329" y="610" as="targetPoint" />
          </mxGeometry>
        </mxCell>
        <mxCell id="110" style="vsdxID=62;edgeStyle=none;startArrow=none;endArrow=block;startSize=5;endSize=5;strokeColor=#333333;spacingTop=-3;spacingBottom=-3;spacingLeft=-3;spacingRight=-3;verticalAlign=middle;html=1;labelBackgroundColor=none;rounded=1;" parent="1" edge="1">
          <mxGeometry relative="1" as="geometry">
            <mxPoint x="-1" as="offset" />
            <Array as="points" />
            <mxPoint x="432" y="610" as="sourcePoint" />
            <mxPoint x="472" y="610" as="targetPoint" />
          </mxGeometry>
        </mxCell>
        <mxCell id="111" value="&lt;p style=&quot;align:center;margin-left:0;margin-right:0;margin-top:0px;margin-bottom:0px;text-indent:0;valign:middle;direction:ltr;&quot;&gt;&lt;font style=&quot;font-size:11px;font-family:Arial;color:#333333;direction:ltr;letter-spacing:0px;line-height:100%;opacity:1&quot;&gt;No&lt;/font&gt;&lt;/p&gt;" style="vsdxID=63;edgeStyle=none;startArrow=none;endArrow=block;startSize=5;endSize=5;strokeColor=#333333;spacingTop=-3;spacingBottom=-3;spacingLeft=-3;spacingRight=-3;verticalAlign=middle;html=1;labelBackgroundColor=#ffffff;rounded=1;align=center;" parent="1" edge="1">
          <mxGeometry relative="1" as="geometry">
            <mxPoint x="-172" as="offset" />
            <Array as="points">
              <mxPoint x="594.4" y="610" />
              <mxPoint x="594.4" y="546.19" />
              <mxPoint x="240.96" y="546.19" />
            </Array>
            <mxPoint x="569" y="610" as="sourcePoint" />
            <mxPoint x="241" y="571" as="targetPoint" />
          </mxGeometry>
        </mxCell>
        <mxCell id="71" style="vsdxID=64;fillColor=none;gradientColor=none;strokeColor=none;spacingTop=-3;spacingBottom=-3;spacingLeft=-3;spacingRight=-3;labelBackgroundColor=none;rounded=1;html=1;whiteSpace=wrap;" parent="1" vertex="1">
          <mxGeometry x="38" y="678" width="101" height="76" as="geometry" />
        </mxCell>
        <mxCell id="72" style="vsdxID=65;fillColor=#c1e4f7;gradientColor=none;shape=stencil(fZNRboMwDIZPk9co2GoRjxXrLtAToJKWaAyqlG7Q0zdgUuKM8Rb7/y1/cWKB+b0qblqAune2/dK/puwqgR8CwDSVtqZzJ4FHgfmltfpq20dTUnwrnBPUlNEl1SSjG1Rhzyfz1JRTEpN0RwJVfrc/Y8d+1kkaKNrLfTolPsl7flgyJ9w9h0hhDxSChLnTAMzfI4VexVCdWqmD61abJiDLdgxNbXFlqfSXHDiqZ0uU4mjI0RYd10axwrdUzAwoEbcgl4I3NWcMbxFje84smqE3/EfJh8jcfwmDB4yZe/6iA0RXQC7j6kxW+Lb/nztMH51WwNQ17Umox4vhUrRUeHwB);strokeColor=#333333;spacingTop=-3;spacingBottom=-3;spacingLeft=-3;spacingRight=-3;labelBackgroundColor=none;rounded=1;html=1;whiteSpace=wrap;" parent="71" vertex="1">
          <mxGeometry width="101" height="76" as="geometry" />
        </mxCell>
        <mxCell id="73" value="&lt;p style=&quot;align:center;margin-left:0;margin-right:0;margin-top:0px;margin-bottom:0px;text-indent:0;valign:middle;direction:ltr;&quot;&gt;&lt;font style=&quot;font-size:11px;font-family:Arial;color:#333333;direction:ltr;letter-spacing:0px;line-height:100%;opacity:1&quot;&gt;Capture Image_0&lt;/font&gt;&lt;/p&gt;" style="text;vsdxID=64;fillColor=none;gradientColor=none;strokeColor=none;spacingTop=-3;spacingBottom=-3;spacingLeft=-3;spacingRight=-3;labelBackgroundColor=none;rounded=1;html=1;whiteSpace=wrap;verticalAlign=middle;align=center;;html=1;" parent="71" vertex="1">
          <mxGeometry x="7.62" y="7.42" width="86.36" height="60.96" as="geometry" />
        </mxCell>
        <mxCell id="112" value="&lt;p style=&quot;align:center;margin-left:0;margin-right:0;margin-top:0px;margin-bottom:0px;text-indent:0;valign:middle;direction:ltr;&quot;&gt;&lt;font style=&quot;font-size:11px;font-family:Arial;color:#333333;direction:ltr;letter-spacing:0px;line-height:100%;opacity:1&quot;&gt;Yes&lt;/font&gt;&lt;/p&gt;" style="vsdxID=66;edgeStyle=none;startArrow=none;endArrow=block;startSize=5;endSize=5;strokeColor=#333333;spacingTop=-3;spacingBottom=-3;spacingLeft=-3;spacingRight=-3;verticalAlign=middle;html=1;labelBackgroundColor=#ffffff;rounded=1;align=center;" parent="1" edge="1">
          <mxGeometry relative="1" as="geometry">
            <mxPoint x="-226" y="2" as="offset" />
            <Array as="points">
              <mxPoint x="520" y="661.94" />
              <mxPoint x="88.2" y="661.94" />
            </Array>
            <mxPoint x="520" y="646" as="sourcePoint" />
            <mxPoint x="88" y="678" as="targetPoint" />
          </mxGeometry>
        </mxCell>
        <mxCell id="74" style="vsdxID=67;fillColor=none;gradientColor=none;strokeColor=none;spacingTop=-3;spacingBottom=-3;spacingLeft=-3;spacingRight=-3;labelBackgroundColor=none;rounded=1;html=1;whiteSpace=wrap;" parent="1" vertex="1">
          <mxGeometry x="190" y="678" width="101" height="76" as="geometry" />
        </mxCell>
        <mxCell id="75" style="vsdxID=68;fillColor=#c1e4f7;gradientColor=none;shape=stencil(fZNRboMwDIZPk9co2GoRjxXrLtAToJKWaAyqlG7Q0zdgUuKM8Rb7/y1/cWKB+b0qblqAune2/dK/puwqgR8CwDSVtqZzJ4FHgfmltfpq20dTUnwrnBPUlNEl1SSjG1Rhzyfz1JRTEpN0RwJVfrc/Y8d+1kkaKNrLfTolPsl7flgyJ9w9h0hhDxSChLnTAMzfI4VexVCdWqmD61abJiDLdgxNbXFlqfSXHDiqZ0uU4mjI0RYd10axwrdUzAwoEbcgl4I3NWcMbxFje84smqE3/EfJh8jcfwmDB4yZe/6iA0RXQC7j6kxW+Lb/nztMH51WwNQ17Umox4vhUrRUeHwB);strokeColor=#333333;spacingTop=-3;spacingBottom=-3;spacingLeft=-3;spacingRight=-3;labelBackgroundColor=none;rounded=1;html=1;whiteSpace=wrap;" parent="74" vertex="1">
          <mxGeometry width="101" height="76" as="geometry" />
        </mxCell>
        <mxCell id="76" value="&lt;p style=&quot;align:center;margin-left:0;margin-right:0;margin-top:0px;margin-bottom:0px;text-indent:0;valign:middle;direction:ltr;&quot;&gt;&lt;font style=&quot;font-size:11px;font-family:Arial;color:#333333;direction:ltr;letter-spacing:0px;line-height:100%;opacity:1&quot;&gt;Step Strain &lt;/font&gt;&lt;/p&gt;" style="text;vsdxID=67;fillColor=none;gradientColor=none;strokeColor=none;spacingTop=-3;spacingBottom=-3;spacingLeft=-3;spacingRight=-3;labelBackgroundColor=none;rounded=1;html=1;whiteSpace=wrap;verticalAlign=middle;align=center;;html=1;" parent="74" vertex="1">
          <mxGeometry x="7.62" y="7.42" width="86.36" height="60.96" as="geometry" />
        </mxCell>
        <mxCell id="77" style="vsdxID=69;fillColor=none;gradientColor=none;strokeColor=none;spacingTop=-3;spacingBottom=-3;spacingLeft=-3;spacingRight=-3;labelBackgroundColor=none;rounded=1;html=1;whiteSpace=wrap;" parent="1" vertex="1">
          <mxGeometry x="330" y="678" width="101" height="76" as="geometry" />
        </mxCell>
        <mxCell id="78" style="vsdxID=70;fillColor=#c1e4f7;gradientColor=none;shape=stencil(fZNRboMwDIZPk9co2GoRjxXrLtAToJKWaAyqlG7Q0zdgUuKM8Rb7/y1/cWKB+b0qblqAune2/dK/puwqgR8CwDSVtqZzJ4FHgfmltfpq20dTUnwrnBPUlNEl1SSjG1Rhzyfz1JRTEpN0RwJVfrc/Y8d+1kkaKNrLfTolPsl7flgyJ9w9h0hhDxSChLnTAMzfI4VexVCdWqmD61abJiDLdgxNbXFlqfSXHDiqZ0uU4mjI0RYd10axwrdUzAwoEbcgl4I3NWcMbxFje84smqE3/EfJh8jcfwmDB4yZe/6iA0RXQC7j6kxW+Lb/nztMH51WwNQ17Umox4vhUrRUeHwB);strokeColor=#333333;spacingTop=-3;spacingBottom=-3;spacingLeft=-3;spacingRight=-3;labelBackgroundColor=none;rounded=1;html=1;whiteSpace=wrap;" parent="77" vertex="1">
          <mxGeometry width="101" height="76" as="geometry" />
        </mxCell>
        <mxCell id="79" value="&lt;p style=&quot;align:center;margin-left:0;margin-right:0;margin-top:0px;margin-bottom:0px;text-indent:0;valign:middle;direction:ltr;&quot;&gt;&lt;font style=&quot;font-size:11px;font-family:Arial;color:#333333;direction:ltr;letter-spacing:0px;line-height:100%;opacity:1&quot;&gt;Measure force&lt;/font&gt;&lt;/p&gt;" style="text;vsdxID=69;fillColor=none;gradientColor=none;strokeColor=none;spacingTop=-3;spacingBottom=-3;spacingLeft=-3;spacingRight=-3;labelBackgroundColor=none;rounded=1;html=1;whiteSpace=wrap;verticalAlign=middle;align=center;;html=1;" parent="77" vertex="1">
          <mxGeometry x="7.62" y="7.42" width="86.36" height="60.96" as="geometry" />
        </mxCell>
        <mxCell id="113" style="vsdxID=71;edgeStyle=none;startArrow=none;endArrow=block;startSize=5;endSize=5;strokeColor=#333333;spacingTop=-3;spacingBottom=-3;spacingLeft=-3;spacingRight=-3;verticalAlign=middle;html=1;labelBackgroundColor=none;rounded=1;" parent="1" edge="1">
          <mxGeometry relative="1" as="geometry">
            <mxPoint as="offset" />
            <Array as="points" />
            <mxPoint x="140" y="716" as="sourcePoint" />
            <mxPoint x="190" y="716" as="targetPoint" />
          </mxGeometry>
        </mxCell>
        <mxCell id="114" style="vsdxID=72;edgeStyle=none;startArrow=none;endArrow=block;startSize=5;endSize=5;strokeColor=#333333;spacingTop=-3;spacingBottom=-3;spacingLeft=-3;spacingRight=-3;verticalAlign=middle;html=1;labelBackgroundColor=none;rounded=1;" parent="1" edge="1">
          <mxGeometry relative="1" as="geometry">
            <mxPoint x="-1" as="offset" />
            <Array as="points" />
            <mxPoint x="292" y="716" as="sourcePoint" />
            <mxPoint x="329" y="716" as="targetPoint" />
          </mxGeometry>
        </mxCell>
        <mxCell id="80" style="vsdxID=73;fillColor=none;gradientColor=none;strokeColor=none;spacingTop=-3;spacingBottom=-3;spacingLeft=-3;spacingRight=-3;labelBackgroundColor=none;rounded=1;html=1;whiteSpace=wrap;" parent="1" vertex="1">
          <mxGeometry x="469" y="678" width="101" height="76" as="geometry" />
        </mxCell>
        <mxCell id="81" style="vsdxID=74;fillColor=#c1e4f7;gradientColor=none;shape=stencil(fZNRboMwDIZPk9co2GoRjxXrLtAToJKWaAyqlG7Q0zdgUuKM8Rb7/y1/cWKB+b0qblqAune2/dK/puwqgR8CwDSVtqZzJ4FHgfmltfpq20dTUnwrnBPUlNEl1SSjG1Rhzyfz1JRTEpN0RwJVfrc/Y8d+1kkaKNrLfTolPsl7flgyJ9w9h0hhDxSChLnTAMzfI4VexVCdWqmD61abJiDLdgxNbXFlqfSXHDiqZ0uU4mjI0RYd10axwrdUzAwoEbcgl4I3NWcMbxFje84smqE3/EfJh8jcfwmDB4yZe/6iA0RXQC7j6kxW+Lb/nztMH51WwNQ17Umox4vhUrRUeHwB);strokeColor=#333333;spacingTop=-3;spacingBottom=-3;spacingLeft=-3;spacingRight=-3;labelBackgroundColor=none;rounded=1;html=1;whiteSpace=wrap;" parent="80" vertex="1">
          <mxGeometry width="101" height="76" as="geometry" />
        </mxCell>
        <mxCell id="82" value="&lt;p style=&quot;align:center;margin-left:0;margin-right:0;margin-top:0px;margin-bottom:0px;text-indent:0;valign:middle;direction:ltr;&quot;&gt;&lt;font style=&quot;font-size:11px;font-family:Arial;color:#333333;direction:ltr;letter-spacing:0px;line-height:100%;opacity:1&quot;&gt;Capture Image_1&lt;/font&gt;&lt;/p&gt;" style="text;vsdxID=73;fillColor=none;gradientColor=none;strokeColor=none;spacingTop=-3;spacingBottom=-3;spacingLeft=-3;spacingRight=-3;labelBackgroundColor=none;rounded=1;html=1;whiteSpace=wrap;verticalAlign=middle;align=center;;html=1;" parent="80" vertex="1">
          <mxGeometry x="7.62" y="7.42" width="86.36" height="60.96" as="geometry" />
        </mxCell>
        <mxCell id="115" style="vsdxID=75;edgeStyle=none;startArrow=none;endArrow=block;startSize=5;endSize=5;strokeColor=#333333;spacingTop=-3;spacingBottom=-3;spacingLeft=-3;spacingRight=-3;verticalAlign=middle;html=1;labelBackgroundColor=none;rounded=1;" parent="1" edge="1">
          <mxGeometry relative="1" as="geometry">
            <mxPoint x="-1" as="offset" />
            <Array as="points" />
            <mxPoint x="432" y="716" as="sourcePoint" />
            <mxPoint x="469" y="716" as="targetPoint" />
          </mxGeometry>
        </mxCell>
        <mxCell id="83" style="vsdxID=76;fillColor=none;gradientColor=none;strokeColor=none;spacingTop=-3;spacingBottom=-3;spacingLeft=-3;spacingRight=-3;labelBackgroundColor=none;rounded=1;html=1;whiteSpace=wrap;" parent="1" vertex="1">
          <mxGeometry x="749" y="678" width="101" height="76" as="geometry" />
        </mxCell>
        <mxCell id="84" style="vsdxID=77;fillColor=#c1e4f7;gradientColor=none;shape=stencil(fZPRdoMgDIafhlsPJNLVy52ue4E9gaeyyZnTHmq3dk8/algFUvUKkj/kS2IE7k5tfTQC5Gl0w6f5sc3YCnwRALZvjbOjPwncC9y9D858uOHcN3Q/1l4JcrKYhmLUTQ2ydoc3+2vIJgtUT5ocFPk1fN8yXshfbsh3Ddfp9krKw9mRVAXntlBVkAeTKv4fvwBZtCq2AeQKTIRBVAYFsrTy2WfubB8xVhnjZg2y4pCeG7ScP5USxxFzETnyHSItYYn5XmESvcAc92wuA7LOlpwzVmE2UOSZH3CmmHp1/pxS8/nz8S+1H1MC5NN9xLvyv/rDtBa0MLbraKtif75G3kQriPs/);strokeColor=#333333;spacingTop=-3;spacingBottom=-3;spacingLeft=-3;spacingRight=-3;labelBackgroundColor=none;rounded=1;html=1;whiteSpace=wrap;" parent="83" vertex="1">
          <mxGeometry width="101" height="76" as="geometry" />
        </mxCell>
        <mxCell id="85" value="&lt;p style=&quot;align:center;margin-left:0;margin-right:0;margin-top:0px;margin-bottom:0px;text-indent:0;valign:middle;direction:ltr;&quot;&gt;&lt;font style=&quot;font-size:11px;font-family:Arial;color:#333333;direction:ltr;letter-spacing:0px;line-height:100%;opacity:1&quot;&gt;Break Present? Is image n differnt from n-1?&lt;/font&gt;&lt;/p&gt;" style="text;vsdxID=76;fillColor=none;gradientColor=none;strokeColor=none;spacingTop=-3;spacingBottom=-3;spacingLeft=-3;spacingRight=-3;labelBackgroundColor=none;rounded=1;html=1;whiteSpace=wrap;verticalAlign=middle;align=center;;html=1;" parent="83" vertex="1">
          <mxGeometry x="3.17" y="2.98" width="95.25" height="69.85" as="geometry" />
        </mxCell>
        <mxCell id="86" style="vsdxID=78;fillColor=none;gradientColor=none;strokeColor=none;spacingTop=-3;spacingBottom=-3;spacingLeft=-3;spacingRight=-3;labelBackgroundColor=none;rounded=1;html=1;whiteSpace=wrap;" parent="1" vertex="1">
          <mxGeometry x="609" y="678" width="101" height="76" as="geometry" />
        </mxCell>
        <mxCell id="87" style="vsdxID=79;fillColor=#c1e4f7;gradientColor=none;shape=stencil(fZNRboMwDIZPk9co2GoRjxXrLtAToJKWaAyqlG7Q0zdgUuKM8Rb7/y1/cWKB+b0qblqAune2/dK/puwqgR8CwDSVtqZzJ4FHgfmltfpq20dTUnwrnBPUlNEl1SSjG1Rhzyfz1JRTEpN0RwJVfrc/Y8d+1kkaKNrLfTolPsl7flgyJ9w9h0hhDxSChLnTAMzfI4VexVCdWqmD61abJiDLdgxNbXFlqfSXHDiqZ0uU4mjI0RYd10axwrdUzAwoEbcgl4I3NWcMbxFje84smqE3/EfJh8jcfwmDB4yZe/6iA0RXQC7j6kxW+Lb/nztMH51WwNQ17Umox4vhUrRUeHwB);strokeColor=#333333;spacingTop=-3;spacingBottom=-3;spacingLeft=-3;spacingRight=-3;labelBackgroundColor=none;rounded=1;html=1;whiteSpace=wrap;" parent="86" vertex="1">
          <mxGeometry width="101" height="76" as="geometry" />
        </mxCell>
        <mxCell id="88" value="&lt;p style=&quot;align:center;margin-left:0;margin-right:0;margin-top:0px;margin-bottom:0px;text-indent:0;valign:middle;direction:ltr;&quot;&gt;&lt;font style=&quot;font-size:11px;font-family:Arial;color:#333333;direction:ltr;letter-spacing:0px;line-height:100%;opacity:1&quot;&gt;Wait 10 mins taking 1 image every minute.&lt;/font&gt;&lt;/p&gt;" style="text;vsdxID=78;fillColor=none;gradientColor=none;strokeColor=none;spacingTop=-3;spacingBottom=-3;spacingLeft=-3;spacingRight=-3;labelBackgroundColor=none;rounded=1;html=1;whiteSpace=wrap;verticalAlign=middle;align=center;;html=1;" parent="86" vertex="1">
          <mxGeometry x="7.62" y="7.42" width="86.36" height="60.96" as="geometry" />
        </mxCell>
        <mxCell id="116" style="vsdxID=80;edgeStyle=none;startArrow=none;endArrow=block;startSize=5;endSize=5;strokeColor=#333333;spacingTop=-3;spacingBottom=-3;spacingLeft=-3;spacingRight=-3;verticalAlign=middle;html=1;labelBackgroundColor=none;rounded=1;" parent="1" edge="1">
          <mxGeometry relative="1" as="geometry">
            <mxPoint x="-1" as="offset" />
            <Array as="points" />
            <mxPoint x="571" y="716" as="sourcePoint" />
            <mxPoint x="609" y="716" as="targetPoint" />
          </mxGeometry>
        </mxCell>
        <mxCell id="117" style="vsdxID=81;edgeStyle=none;startArrow=none;endArrow=block;startSize=5;endSize=5;strokeColor=#333333;spacingTop=-3;spacingBottom=-3;spacingLeft=-3;spacingRight=-3;verticalAlign=middle;html=1;labelBackgroundColor=none;rounded=1;" parent="1" edge="1">
          <mxGeometry relative="1" as="geometry">
            <mxPoint x="-1" as="offset" />
            <Array as="points" />
            <mxPoint x="711" y="716" as="sourcePoint" />
            <mxPoint x="751" y="716" as="targetPoint" />
          </mxGeometry>
        </mxCell>
        <mxCell id="118" value="&lt;p style=&quot;align:center;margin-left:0;margin-right:0;margin-top:0px;margin-bottom:0px;text-indent:0;valign:middle;direction:ltr;&quot;&gt;&lt;font style=&quot;font-size:11px;font-family:Arial;color:#333333;direction:ltr;letter-spacing:0px;line-height:100%;opacity:1&quot;&gt;No&lt;/font&gt;&lt;/p&gt;" style="vsdxID=82;edgeStyle=none;startArrow=none;endArrow=block;startSize=5;endSize=5;strokeColor=#333333;spacingTop=-3;spacingBottom=-3;spacingLeft=-3;spacingRight=-3;verticalAlign=middle;html=1;labelBackgroundColor=#ffffff;rounded=1;align=center;" parent="1" edge="1">
          <mxGeometry relative="1" as="geometry">
            <mxPoint x="-287" as="offset" />
            <Array as="points">
              <mxPoint x="800" y="780.25" />
              <mxPoint x="241.2" y="780.25" />
            </Array>
            <mxPoint x="800" y="753" as="sourcePoint" />
            <mxPoint x="241" y="755" as="targetPoint" />
          </mxGeometry>
        </mxCell>
        <mxCell id="89" style="vsdxID=83;fillColor=none;gradientColor=none;strokeColor=none;spacingTop=-3;spacingBottom=-3;spacingLeft=-3;spacingRight=-3;labelBackgroundColor=none;rounded=1;html=1;whiteSpace=wrap;" parent="1" vertex="1">
          <mxGeometry x="38" y="825" width="101" height="76" as="geometry" />
        </mxCell>
        <mxCell id="90" style="vsdxID=84;fillColor=#c1e4f7;gradientColor=none;shape=stencil(fZNRboMwDIZPk9co2GoRjxXrLtAToJKWaAyqlG7Q0zdgUuKM8Rb7/y1/cWKB+b0qblqAune2/dK/puwqgR8CwDSVtqZzJ4FHgfmltfpq20dTUnwrnBPUlNEl1SSjG1Rhzyfz1JRTEpN0RwJVfrc/Y8d+1kkaKNrLfTolPsl7flgyJ9w9h0hhDxSChLnTAMzfI4VexVCdWqmD61abJiDLdgxNbXFlqfSXHDiqZ0uU4mjI0RYd10axwrdUzAwoEbcgl4I3NWcMbxFje84smqE3/EfJh8jcfwmDB4yZe/6iA0RXQC7j6kxW+Lb/nztMH51WwNQ17Umox4vhUrRUeHwB);strokeColor=#333333;spacingTop=-3;spacingBottom=-3;spacingLeft=-3;spacingRight=-3;labelBackgroundColor=none;rounded=1;html=1;whiteSpace=wrap;" parent="89" vertex="1">
          <mxGeometry width="101" height="76" as="geometry" />
        </mxCell>
        <mxCell id="91" value="&lt;p style=&quot;margin-left: 0 ; margin-right: 0 ; margin-top: 0px ; margin-bottom: 0px ; text-indent: 0 ; direction: ltr&quot;&gt;&lt;font style=&quot;font-size: 11px ; font-family: &amp;#34;arial&amp;#34; ; color: #333333 ; direction: ltr ; letter-spacing: 0px ; line-height: 100% ; opacity: 1&quot;&gt;Locate Break, br_x(i),br_y(i),&lt;/font&gt;&lt;/p&gt;&lt;p style=&quot;margin-left: 0 ; margin-right: 0 ; margin-top: 0px ; margin-bottom: 0px ; text-indent: 0 ; direction: ltr&quot;&gt;&lt;font style=&quot;font-size: 11px ; font-family: &amp;#34;arial&amp;#34; ; color: #333333 ; direction: ltr ; letter-spacing: 0px ; line-height: 100% ; opacity: 1&quot;&gt;n_br(t), frag_len(i)&lt;/font&gt;&lt;/p&gt;" style="text;vsdxID=83;fillColor=none;gradientColor=none;strokeColor=none;spacingTop=-3;spacingBottom=-3;spacingLeft=-3;spacingRight=-3;labelBackgroundColor=none;rounded=1;html=1;whiteSpace=wrap;verticalAlign=middle;align=center;;html=1;" parent="89" vertex="1">
          <mxGeometry x="7.62" y="7.42" width="86.36" height="60.96" as="geometry" />
        </mxCell>
        <mxCell id="119" value="&lt;p style=&quot;align:center;margin-left:0;margin-right:0;margin-top:0px;margin-bottom:0px;text-indent:0;valign:middle;direction:ltr;&quot;&gt;&lt;font style=&quot;font-size:11px;font-family:Arial;color:#333333;direction:ltr;letter-spacing:0px;line-height:100%;opacity:1&quot;&gt;Yes&lt;/font&gt;&lt;/p&gt;" style="vsdxID=85;edgeStyle=none;startArrow=none;endArrow=block;startSize=5;endSize=5;strokeColor=#333333;spacingTop=-3;spacingBottom=-3;spacingLeft=-3;spacingRight=-3;verticalAlign=middle;html=1;labelBackgroundColor=#ffffff;rounded=1;align=center;" parent="1" edge="1">
          <mxGeometry relative="1" as="geometry">
            <mxPoint x="-390" y="2" as="offset" />
            <Array as="points">
              <mxPoint x="873.4" y="716" />
              <mxPoint x="873.4" y="798.8" />
              <mxPoint x="88.16" y="798.8" />
            </Array>
            <mxPoint x="848" y="716" as="sourcePoint" />
            <mxPoint x="88" y="825" as="targetPoint" />
          </mxGeometry>
        </mxCell>
        <mxCell id="92" style="vsdxID=86;fillColor=none;gradientColor=none;strokeColor=none;spacingTop=-3;spacingBottom=-3;spacingLeft=-3;spacingRight=-3;labelBackgroundColor=none;rounded=1;html=1;whiteSpace=wrap;" parent="1" vertex="1">
          <mxGeometry x="190" y="825" width="101" height="76" as="geometry" />
        </mxCell>
        <mxCell id="93" style="vsdxID=87;fillColor=#c1e4f7;gradientColor=none;shape=stencil(fZNRboMwDIZPk9co2GoRjxXrLtAToJKWaAyqlG7Q0zdgUuKM8Rb7/y1/cWKB+b0qblqAune2/dK/puwqgR8CwDSVtqZzJ4FHgfmltfpq20dTUnwrnBPUlNEl1SSjG1Rhzyfz1JRTEpN0RwJVfrc/Y8d+1kkaKNrLfTolPsl7flgyJ9w9h0hhDxSChLnTAMzfI4VexVCdWqmD61abJiDLdgxNbXFlqfSXHDiqZ0uU4mjI0RYd10axwrdUzAwoEbcgl4I3NWcMbxFje84smqE3/EfJh8jcfwmDB4yZe/6iA0RXQC7j6kxW+Lb/nztMH51WwNQ17Umox4vhUrRUeHwB);strokeColor=#333333;spacingTop=-3;spacingBottom=-3;spacingLeft=-3;spacingRight=-3;labelBackgroundColor=none;rounded=1;html=1;whiteSpace=wrap;" parent="92" vertex="1">
          <mxGeometry width="101" height="76" as="geometry" />
        </mxCell>
        <mxCell id="94" value="&lt;p style=&quot;align:center;margin-left:0;margin-right:0;margin-top:0px;margin-bottom:0px;text-indent:0;valign:middle;direction:ltr;&quot;&gt;&lt;font style=&quot;font-size:11px;font-family:Arial;color:#333333;direction:ltr;letter-spacing:0px;line-height:100%;opacity:1&quot;&gt;Wait 10 mins taking 1 image every minute.&lt;/font&gt;&lt;/p&gt;" style="text;vsdxID=86;fillColor=none;gradientColor=none;strokeColor=none;spacingTop=-3;spacingBottom=-3;spacingLeft=-3;spacingRight=-3;labelBackgroundColor=none;rounded=1;html=1;whiteSpace=wrap;verticalAlign=middle;align=center;;html=1;" parent="92" vertex="1">
          <mxGeometry x="7.62" y="7.42" width="86.36" height="60.96" as="geometry" />
        </mxCell>
        <mxCell id="120" style="vsdxID=88;edgeStyle=none;startArrow=none;endArrow=block;startSize=5;endSize=5;strokeColor=#333333;spacingTop=-3;spacingBottom=-3;spacingLeft=-3;spacingRight=-3;verticalAlign=middle;html=1;labelBackgroundColor=none;rounded=1;" parent="1" edge="1">
          <mxGeometry relative="1" as="geometry">
            <mxPoint as="offset" />
            <Array as="points" />
            <mxPoint x="140" y="863" as="sourcePoint" />
            <mxPoint x="190" y="863" as="targetPoint" />
          </mxGeometry>
        </mxCell>
        <mxCell id="30WMBE_O_WdKiFXIOTOA-123" style="edgeStyle=orthogonalEdgeStyle;rounded=0;orthogonalLoop=1;jettySize=auto;html=1;exitX=1;exitY=0.5;exitDx=0;exitDy=0;entryX=0;entryY=0.5;entryDx=0;entryDy=0;" parent="1" source="95" target="98" edge="1">
          <mxGeometry relative="1" as="geometry" />
        </mxCell>
        <mxCell id="95" style="vsdxID=89;fillColor=none;gradientColor=none;strokeColor=none;spacingTop=-3;spacingBottom=-3;spacingLeft=-3;spacingRight=-3;labelBackgroundColor=none;rounded=1;html=1;whiteSpace=wrap;" parent="1" vertex="1">
          <mxGeometry x="342" y="825" width="101" height="76" as="geometry" />
        </mxCell>
        <mxCell id="96" style="vsdxID=90;fillColor=#c1e4f7;gradientColor=none;shape=stencil(fZPRdoMgDIafhlsPJNLVy52ue4E9gaeyyZnTHmq3dk8/algFUvUKkj/kS2IE7k5tfTQC5Gl0w6f5sc3YCnwRALZvjbOjPwncC9y9D858uOHcN3Q/1l4JcrKYhmLUTQ2ydoc3+2vIJgtUT5ocFPk1fN8yXshfbsh3Ddfp9krKw9mRVAXntlBVkAeTKv4fvwBZtCq2AeQKTIRBVAYFsrTy2WfubB8xVhnjZg2y4pCeG7ScP5USxxFzETnyHSItYYn5XmESvcAc92wuA7LOlpwzVmE2UOSZH3CmmHp1/pxS8/nz8S+1H1MC5NN9xLvyv/rDtBa0MLbraKtif75G3kQriPs/);strokeColor=#333333;spacingTop=-3;spacingBottom=-3;spacingLeft=-3;spacingRight=-3;labelBackgroundColor=none;rounded=1;html=1;whiteSpace=wrap;" parent="95" vertex="1">
          <mxGeometry width="101" height="76" as="geometry" />
        </mxCell>
        <mxCell id="97" value="&lt;p style=&quot;align:center;margin-left:0;margin-right:0;margin-top:0px;margin-bottom:0px;text-indent:0;valign:middle;direction:ltr;&quot;&gt;&lt;font style=&quot;font-size:11px;font-family:Arial;color:#333333;direction:ltr;letter-spacing:0px;line-height:100%;opacity:1&quot;&gt;Break Present? Is image n differnt from n-1?&lt;/font&gt;&lt;/p&gt;" style="text;vsdxID=89;fillColor=none;gradientColor=none;strokeColor=none;spacingTop=-3;spacingBottom=-3;spacingLeft=-3;spacingRight=-3;labelBackgroundColor=none;rounded=1;html=1;whiteSpace=wrap;verticalAlign=middle;align=center;;html=1;" parent="95" vertex="1">
          <mxGeometry x="3.17" y="2.98" width="95.25" height="69.85" as="geometry" />
        </mxCell>
        <mxCell id="121" style="vsdxID=91;edgeStyle=none;startArrow=none;endArrow=block;startSize=5;endSize=5;strokeColor=#333333;spacingTop=-3;spacingBottom=-3;spacingLeft=-3;spacingRight=-3;verticalAlign=middle;html=1;labelBackgroundColor=none;rounded=1;" parent="1" edge="1">
          <mxGeometry relative="1" as="geometry">
            <mxPoint as="offset" />
            <Array as="points" />
            <mxPoint x="292" y="863" as="sourcePoint" />
            <mxPoint x="345" y="863" as="targetPoint" />
          </mxGeometry>
        </mxCell>
        <mxCell id="122" value="&lt;p style=&quot;align:center;margin-left:0;margin-right:0;margin-top:0px;margin-bottom:0px;text-indent:0;valign:middle;direction:ltr;&quot;&gt;&lt;font style=&quot;font-size:11px;font-family:Arial;color:#333333;direction:ltr;letter-spacing:0px;line-height:100%;opacity:1&quot;&gt;Yes&lt;/font&gt;&lt;/p&gt;" style="vsdxID=92;edgeStyle=none;startArrow=none;endArrow=block;startSize=5;endSize=5;strokeColor=#333333;spacingTop=-3;spacingBottom=-3;spacingLeft=-3;spacingRight=-3;verticalAlign=middle;html=1;labelBackgroundColor=#ffffff;rounded=1;align=center;" parent="1" edge="1">
          <mxGeometry relative="1" as="geometry">
            <mxPoint x="-162" y="2" as="offset" />
            <Array as="points">
              <mxPoint x="393" y="927.24" />
              <mxPoint x="88.2" y="927.24" />
            </Array>
            <mxPoint x="393" y="900" as="sourcePoint" />
            <mxPoint x="88" y="902" as="targetPoint" />
          </mxGeometry>
        </mxCell>
        <mxCell id="98" style="vsdxID=93;fillColor=none;gradientColor=none;strokeColor=none;spacingTop=-3;spacingBottom=-3;spacingLeft=-3;spacingRight=-3;labelBackgroundColor=none;rounded=1;html=1;whiteSpace=wrap;" parent="1" vertex="1">
          <mxGeometry x="482" y="825" width="101" height="76" as="geometry" />
        </mxCell>
        <mxCell id="99" style="vsdxID=94;fillColor=#c1e4f7;gradientColor=none;shape=stencil(fZNRboMwDIZPk9co2GoRjxXrLtAToJKWaAyqlG7Q0zdgUuKM8Rb7/y1/cWKB+b0qblqAune2/dK/puwqgR8CwDSVtqZzJ4FHgfmltfpq20dTUnwrnBPUlNEl1SSjG1Rhzyfz1JRTEpN0RwJVfrc/Y8d+1kkaKNrLfTolPsl7flgyJ9w9h0hhDxSChLnTAMzfI4VexVCdWqmD61abJiDLdgxNbXFlqfSXHDiqZ0uU4mjI0RYd10axwrdUzAwoEbcgl4I3NWcMbxFje84smqE3/EfJh8jcfwmDB4yZe/6iA0RXQC7j6kxW+Lb/nztMH51WwNQ17Umox4vhUrRUeHwB);strokeColor=#333333;spacingTop=-3;spacingBottom=-3;spacingLeft=-3;spacingRight=-3;labelBackgroundColor=none;rounded=1;html=1;whiteSpace=wrap;" parent="98" vertex="1">
          <mxGeometry width="101" height="76" as="geometry" />
        </mxCell>
        <mxCell id="100" value="&lt;p style=&quot;margin-left: 0 ; margin-right: 0 ; margin-top: 0px ; margin-bottom: 0px ; text-indent: 0 ; direction: ltr&quot;&gt;&lt;font style=&quot;font-size: 11px ; font-family: &amp;#34;arial&amp;#34; ; color: #333333 ; direction: ltr ; letter-spacing: 0px ; line-height: 100% ; opacity: 1&quot;&gt;Step Stran, Measure force, wait 10 mins capture images&lt;/font&gt;&lt;/p&gt;" style="text;vsdxID=93;fillColor=none;gradientColor=none;strokeColor=none;spacingTop=-3;spacingBottom=-3;spacingLeft=-3;spacingRight=-3;labelBackgroundColor=none;rounded=1;html=1;whiteSpace=wrap;verticalAlign=middle;align=center;;html=1;" parent="98" vertex="1">
          <mxGeometry x="7.62" y="7.42" width="86.36" height="60.96" as="geometry" />
        </mxCell>
        <mxCell id="30WMBE_O_WdKiFXIOTOA-124" value="Could fit breaks versus time to 1-e^x to predicts when last break had ocured&amp;nbsp;" style="ellipse;shape=cloud;whiteSpace=wrap;html=1;" parent="1" vertex="1">
          <mxGeometry x="660" y="490" width="120" height="130" as="geometry" />
        </mxCell>
        <mxCell id="-JdHgIq8-9u2Xs_iS9q1-123" value="" style="endArrow=none;dashed=1;html=1;dashPattern=1 3;strokeWidth=2;exitX=0.5;exitY=0;exitDx=0;exitDy=0;" edge="1" parent="1" source="85" target="30WMBE_O_WdKiFXIOTOA-124">
          <mxGeometry width="50" height="50" relative="1" as="geometry">
            <mxPoint x="790" y="720" as="sourcePoint" />
            <mxPoint x="840" y="670" as="targetPoint" />
          </mxGeometry>
        </mxCell>
        <mxCell id="-JdHgIq8-9u2Xs_iS9q1-125" value="No" style="text;html=1;strokeColor=none;fillColor=none;align=center;verticalAlign=middle;whiteSpace=wrap;rounded=0;" vertex="1" parent="1">
          <mxGeometry x="442" y="850" width="40" height="20" as="geometry" />
        </mxCell>
        <mxCell id="-JdHgIq8-9u2Xs_iS9q1-127" value="set first fragmentation length via br_x(1) and L_sam" style="ellipse;shape=cloud;whiteSpace=wrap;html=1;" vertex="1" parent="1">
          <mxGeometry x="827" y="500" width="135" height="120" as="geometry" />
        </mxCell>
        <mxCell id="-JdHgIq8-9u2Xs_iS9q1-129" value="" style="endArrow=none;dashed=1;html=1;dashPattern=1 3;strokeWidth=2;exitX=0.5;exitY=0;exitDx=0;exitDy=0;entryX=0.55;entryY=0.95;entryDx=0;entryDy=0;entryPerimeter=0;" edge="1" parent="1" source="83" target="-JdHgIq8-9u2Xs_iS9q1-127">
          <mxGeometry width="50" height="50" relative="1" as="geometry">
            <mxPoint x="870" y="610" as="sourcePoint" />
            <mxPoint x="890" y="590" as="targetPoint" />
          </mxGeometry>
        </mxCell>
      </root>
    </mxGraphModel>
  </diagram>
</mxfile>
